<svg width="44" height="42" viewBox="0 0 44 42" fill="none" xmlns="http://www.w3.org/2000/svg">
<path d="M31.7784 4.73951C31.1317 4.94908 30.6468 5.24732 29.9576 5.85185C29.0813 6.61758 26.5288 9.18884 26.5628 9.26139C26.5799 9.30169 28.2219 10.8976 30.2128 12.808L33.8458 16.282L35.9218 14.3314C37.6065 12.7435 38.0574 12.284 38.2616 11.8891C38.9593 10.5752 38.8657 9.02764 38.0319 7.8347C37.5894 7.20599 35.9559 5.6584 35.2922 5.23926C35.0115 5.06193 34.535 4.8443 34.2287 4.75563C33.5225 4.54606 32.3824 4.538 31.7784 4.73951Z" fill="#658BBD"/>
<path d="M16.0294 18.958C10.6267 24.0844 7.42759 27.1796 7.28295 27.4134C6.89157 28.0582 4.84961 34.6677 4.84961 35.2803C4.84961 36.0621 5.37712 36.6022 6.1939 36.6586C6.58528 36.6828 7.01069 36.6022 8.42305 36.2314C11.52 35.4334 13.1961 34.9176 14.115 34.4904L14.9999 34.0793L17.8586 31.4355C21.7469 27.8406 32.0758 18.0311 32.0758 17.9343C32.0758 17.8296 24.7417 10.8815 24.6311 10.8815C24.5801 10.8815 20.7089 14.5167 16.0294 18.958Z" fill="#658BBD"/>
</svg>
