<svg width="44" height="44" viewBox="0 0 44 44" fill="none" xmlns="http://www.w3.org/2000/svg">
<path d="M16.8519 2.88752C16.1386 3.07659 15.4339 3.49768 14.9269 4.03049C14.0761 4.92424 13.7495 5.83518 13.7495 7.3219V8.25002H10.8019C7.55342 8.25002 7.27842 8.2844 6.3417 8.78283C5.74873 9.09221 4.94092 9.9258 4.64873 10.5188C3.65186 12.5469 4.43389 14.9446 6.44483 16.0188L7.00342 16.3196L8.21514 27.2164C9.55577 39.2047 9.46123 38.6375 10.1917 39.6172C10.6128 40.1672 11.4378 40.7688 12.1597 41.0438C12.5722 41.1985 13.0105 41.207 21.7417 41.2328C29.8112 41.25 30.9628 41.2414 31.5042 41.1211C32.862 40.8203 33.9964 39.7977 34.4519 38.4485C34.5808 38.0531 34.9073 35.3633 35.7925 27.4055C36.4284 21.6219 36.9784 16.7492 37.0042 16.586C37.0386 16.3196 37.0987 16.2594 37.58 16.036C38.3019 15.6922 39.1097 14.8844 39.4534 14.1367C40.562 11.7821 39.2644 9.04065 36.7378 8.37893C36.3253 8.2758 35.6464 8.25002 33.2401 8.25002H30.2495V7.3219C30.2495 5.83518 29.923 4.92424 29.0722 4.03049C28.548 3.48049 27.8605 3.07659 27.1128 2.87893C26.3823 2.68987 17.5565 2.69846 16.8519 2.88752ZM26.8636 5.72346C27.3792 6.10159 27.4565 6.29924 27.4823 7.3133L27.5167 8.25002H22.0081H16.4995V7.44221C16.4995 6.56565 16.5769 6.26487 16.869 5.9383C17.273 5.50002 17.2472 5.50002 22.1026 5.5258C26.5198 5.54299 26.6315 5.54299 26.8636 5.72346ZM36.4886 11.2235C36.944 11.5586 37.0815 11.8336 37.0815 12.375C37.0815 12.9164 36.944 13.1914 36.4886 13.5266C36.2565 13.7071 36.2394 13.7071 22.1886 13.7328C12.4862 13.75 8.02608 13.7328 7.80264 13.6641C6.93467 13.4149 6.59952 12.2203 7.19248 11.5071C7.64795 10.9742 6.65967 11 22.1026 11.0258C36.248 11.043 36.2565 11.043 36.4886 11.2235ZM34.1683 16.861C34.1425 17.0672 33.6183 21.7938 32.9995 27.3625C32.3034 33.636 31.8308 37.5805 31.7534 37.718C31.5987 38.0188 31.2894 38.2938 30.9972 38.4055C30.8339 38.4742 27.9808 38.5 21.9651 38.5H13.1737L12.8042 38.3024C12.5722 38.182 12.3659 37.993 12.2714 37.7953C12.1425 37.5547 11.8847 35.4492 10.9565 27.0274C10.3206 21.2696 9.79639 16.5516 9.79639 16.5344C9.79639 16.5172 15.2964 16.5 22.0081 16.5H34.2198L34.1683 16.861Z" fill="#658BBD"/>
<path d="M17.3159 19.3703C16.9636 19.525 16.6026 19.9633 16.5425 20.307C16.5167 20.4617 16.4995 23.4867 16.5167 27.0445C16.5425 33.4125 16.5425 33.507 16.7229 33.7391C17.0581 34.1945 17.3331 34.332 17.8745 34.332C18.4159 34.332 18.6909 34.1945 19.0261 33.7391C19.2065 33.507 19.2065 33.4383 19.2065 26.8125C19.2065 20.1867 19.2065 20.118 19.0261 19.8859C18.9315 19.757 18.7511 19.568 18.6307 19.482C18.3472 19.2672 17.6597 19.207 17.3159 19.3703Z" fill="#658BBD"/>
<path d="M25.5659 19.3703C25.2136 19.525 24.8526 19.9633 24.7925 20.307C24.7667 20.4617 24.7495 23.4867 24.7667 27.0445C24.7925 33.4125 24.7925 33.507 24.9729 33.7391C25.3081 34.1945 25.5831 34.332 26.1245 34.332C26.6659 34.332 26.9409 34.1945 27.2761 33.7391C27.4565 33.507 27.4565 33.4383 27.4565 26.8125C27.4565 20.1867 27.4565 20.118 27.2761 19.8859C27.1815 19.757 27.0011 19.568 26.8807 19.482C26.5972 19.2672 25.9097 19.207 25.5659 19.3703Z" fill="#658BBD"/>
</svg>
