<svg width="39" height="27" viewBox="0 0 39 27" fill="none" xmlns="http://www.w3.org/2000/svg">
<path d="M2.29385 0.148875C-0.35984 1.08171 -0.817373 4.58552 1.50842 6.13266C2.07271 6.51186 2.65225 6.67871 3.36906 6.67871C4.08586 6.67871 4.6654 6.51186 5.23732 6.12508C7.57073 4.57794 7.09032 1.05896 4.41376 0.141291C3.85709 -0.0483093 2.83527 -0.0483093 2.29385 0.148875Z" fill="#ADD0FF"/>
<path d="M11.4757 0.945125C9.27194 1.74903 9.22619 4.82814 11.4071 5.7003L11.8341 5.87473L24.035 5.89749C32.2782 5.91265 36.4037 5.8899 36.7544 5.83681C37.4179 5.73822 37.9135 5.48795 38.3101 5.05566C38.7066 4.62337 38.8286 4.38827 38.9506 3.8043C39.1946 2.63636 38.5083 1.40775 37.3721 0.983046C36.9603 0.831365 36.8459 0.831365 24.3553 0.838949C13.8778 0.838949 11.7121 0.861701 11.4757 0.945125Z" fill="#ADD0FF"/>
<path d="M2.28646 10.3115C0.0445444 11.1003 -0.725637 13.8305 0.776597 15.6582C2.08057 17.2281 4.66563 17.2281 5.96197 15.6507C7.47183 13.8229 6.6864 11.0775 4.42161 10.3039C3.85732 10.1143 2.84312 10.1143 2.28646 10.3115Z" fill="#ADD0FF"/>
<path d="M11.9789 10.994C10.347 11.2367 9.37857 12.8824 9.96573 14.4295C10.1869 15.0211 10.7817 15.6126 11.3917 15.8553L11.834 16.0374H24.378H36.9221L37.372 15.8553C38.1955 15.5292 38.7674 14.8391 38.9505 13.9669C39.1945 12.799 38.5234 11.6007 37.372 11.1381L36.9221 10.9561L24.6449 10.9485C17.8963 10.9409 12.1924 10.9636 11.9789 10.994Z" fill="#ADD0FF"/>
<path d="M2.98825 20.3299C2.3782 20.3981 2.00455 20.5346 1.51652 20.8532C-0.832154 22.4155 -0.35937 25.9344 2.32482 26.8521C2.88912 27.0493 3.84993 27.0493 4.41423 26.8521C5.98509 26.3136 6.96116 24.7362 6.70189 23.1663C6.54175 22.1804 6.03847 21.3992 5.23016 20.8607C4.55911 20.4133 3.79656 20.2313 2.98825 20.3299Z" fill="#ADD0FF"/>
<path d="M11.9789 21.1564C10.347 21.3915 9.37857 23.0372 9.96573 24.5919C10.164 25.1152 10.6825 25.6765 11.2239 25.9343L11.6052 26.1239L24.2789 26.1467C36.8763 26.1618 36.9526 26.1618 37.3643 26.0102C38.5082 25.5854 39.1945 24.3568 38.9505 23.1889C38.8285 22.6049 38.7064 22.3698 38.3099 21.9375C37.921 21.5128 37.4254 21.2626 36.8001 21.1564C36.2358 21.0654 12.6042 21.0654 11.9789 21.1564Z" fill="#ADD0FF"/>
</svg>
