<svg width="39" height="27" viewBox="0 0 39 27" fill="none" xmlns="http://www.w3.org/2000/svg">
<path d="M2.29385 0.148875C-0.35984 1.08171 -0.817373 4.58552 1.50842 6.13266C2.07271 6.51186 2.65225 6.67871 3.36906 6.67871C4.08586 6.67871 4.6654 6.51186 5.23732 6.12508C7.57073 4.57794 7.09032 1.05896 4.41376 0.141291C3.85709 -0.0483093 2.83527 -0.0483093 2.29385 0.148875Z" fill="#41378D"/>
<path d="M11.4752 0.945125C9.27146 1.74903 9.2257 4.82814 11.4066 5.7003L11.8336 5.87473L24.0345 5.89749C32.2778 5.91265 36.4032 5.8899 36.754 5.83681C37.4174 5.73822 37.913 5.48795 38.3096 5.05566C38.7061 4.62337 38.8281 4.38827 38.9501 3.8043C39.1941 2.63636 38.5078 1.40775 37.3716 0.983046C36.9598 0.831365 36.8455 0.831365 24.3548 0.838949C13.8773 0.838949 11.7116 0.861701 11.4752 0.945125Z" fill="#41378D"/>
<path d="M2.28646 10.3115C0.0445444 11.1003 -0.725637 13.8305 0.776597 15.6582C2.08057 17.2281 4.66563 17.2281 5.96197 15.6507C7.47183 13.8229 6.6864 11.0775 4.42161 10.3039C3.85732 10.1143 2.84312 10.1143 2.28646 10.3115Z" fill="#41378D"/>
<path d="M11.9784 10.994C10.3465 11.2367 9.37808 12.8824 9.96525 14.4295C10.1864 15.0211 10.7812 15.6126 11.3912 15.8553L11.8335 16.0374H24.3775H36.9216L37.3715 15.8553C38.195 15.5292 38.767 14.8391 38.95 13.9669C39.194 12.799 38.5229 11.6007 37.3715 11.1381L36.9216 10.9561L24.6444 10.9485C17.8958 10.9409 12.1919 10.9636 11.9784 10.994Z" fill="#41378D"/>
<path d="M2.98825 20.3299C2.3782 20.3981 2.00455 20.5346 1.51652 20.8532C-0.832154 22.4155 -0.35937 25.9344 2.32482 26.8521C2.88912 27.0493 3.84993 27.0493 4.41423 26.8521C5.98509 26.3136 6.96116 24.7362 6.70189 23.1663C6.54175 22.1804 6.03847 21.3992 5.23016 20.8607C4.55911 20.4133 3.79656 20.2313 2.98825 20.3299Z" fill="#41378D"/>
<path d="M11.9784 21.1564C10.3465 21.3915 9.37808 23.0372 9.96525 24.5919C10.1635 25.1152 10.682 25.6765 11.2235 25.9343L11.6047 26.1239L24.2784 26.1467C36.8758 26.1618 36.9521 26.1618 37.3639 26.0102C38.5077 25.5854 39.194 24.3568 38.95 23.1889C38.828 22.6049 38.706 22.3698 38.3094 21.9375C37.9205 21.5128 37.4249 21.2626 36.7996 21.1564C36.2353 21.0654 12.6037 21.0654 11.9784 21.1564Z" fill="#41378D"/>
</svg>
