<svg width="35" height="35" viewBox="0 0 35 35" fill="none" xmlns="http://www.w3.org/2000/svg">
<path d="M2.18769 0.0911624C1.1828 0.371747 0.362477 1.19981 0.0958734 2.21266C0.0206775 2.50008 0.000169487 4.84057 0.000169487 16.0434C0.000169487 30.8049 -0.0203385 29.9426 0.389821 30.6544C0.642753 31.0787 1.14862 31.5714 1.5451 31.7699C1.72968 31.8588 3.9377 32.6253 6.46018 33.467L11.0403 35H11.6555C12.4075 35 12.8313 34.8631 13.3987 34.4457C13.8567 34.1103 14.2259 33.6039 14.4241 33.0291C14.5335 32.7143 14.5608 32.4679 14.5608 31.6467V30.6544H16.9739C19.722 30.6544 19.9955 30.6201 20.9183 30.1685C22.0257 29.6278 22.9213 28.4986 23.2015 27.301C23.3588 26.6372 23.3588 20.2317 23.2084 19.8553C22.7504 18.7603 21.1644 18.6919 20.5902 19.7389C20.4876 19.9169 20.4671 20.348 20.4398 23.2976L20.4056 26.6509L20.2347 26.9589C20.139 27.1231 19.9271 27.3558 19.7699 27.4721L19.4691 27.6774L17.015 27.698L14.5608 27.7185L14.5472 16.4061L14.5267 5.09378L14.3079 4.63527C13.9524 3.88248 13.4739 3.43765 12.6536 3.09547L12.2708 2.93807L15.8733 2.9586L19.4691 2.97229L19.7699 3.17759C19.9271 3.29393 20.139 3.52661 20.2347 3.69086L20.4056 3.99882L20.4398 6.63358C20.474 9.21359 20.474 9.27518 20.6244 9.5147C20.7132 9.65157 20.9115 9.85003 21.0687 9.95953C21.3216 10.1375 21.4105 10.158 21.8754 10.158C22.3334 10.158 22.4291 10.1375 22.6683 9.97322C22.8119 9.87056 23.0101 9.6721 23.1058 9.52839L23.2767 9.27518L23.2972 6.5583C23.3177 3.4924 23.2972 3.30762 22.8461 2.39059C22.4769 1.6378 21.6976 0.864481 20.9183 0.481244C19.8792 -0.0251776 20.3714 -0.00464697 10.9378 0.00219656C4.39571 0.00904009 2.42695 0.0295707 2.18769 0.0911624Z" fill="#41378D"/>
<path d="M27.1039 7.44795C26.7553 7.60535 26.4135 7.98859 26.3246 8.32392C26.2768 8.48132 26.2494 9.48048 26.2494 10.856V13.1349H23.1869H20.1244L19.7621 13.3129C19.1468 13.6208 18.846 14.2709 19.0101 14.9416C19.1195 15.4001 19.5912 15.886 20.0423 15.9955C20.2611 16.0503 21.2797 16.0776 23.3031 16.0776H26.2494V18.3428C26.2494 19.9442 26.2768 20.697 26.3315 20.8955C26.5024 21.4498 27.1381 21.8946 27.7602 21.8946C28.3071 21.8878 28.4916 21.7304 31.6362 18.5892C34.7876 15.4412 34.9995 15.188 34.9995 14.6542C34.9995 14.004 35.0405 14.052 31.7251 10.7192C29.6674 8.65925 28.5121 7.54376 28.3276 7.45479C27.9789 7.2837 27.4662 7.2837 27.1039 7.44795Z" fill="#41378D"/>
</svg>
