<svg width="33" height="33" viewBox="0 0 33 33" fill="none" xmlns="http://www.w3.org/2000/svg">
<path d="M5.10871 21.6578C4.75354 21.6578 4.41291 21.5191 4.16177 21.2724C3.91062 21.0256 3.76953 20.691 3.76953 20.342V1.31578C3.76953 0.966815 3.91062 0.632141 4.16177 0.385384C4.41291 0.138627 4.75354 0 5.10871 0C5.46389 0 5.80451 0.138627 6.05566 0.385384C6.3068 0.632141 6.4479 0.966815 6.4479 1.31578V20.342C6.4479 20.691 6.3068 21.0256 6.05566 21.2724C5.80451 21.5191 5.46389 21.6578 5.10871 21.6578Z" fill="#ADD0FF"/>
<path d="M5.10871 32.9997C4.75354 32.9997 4.41291 32.8611 4.16177 32.6144C3.91062 32.3676 3.76953 32.0329 3.76953 31.684V27.7366C3.76953 27.3877 3.91062 27.053 4.16177 26.8062C4.41291 26.5595 4.75354 26.4208 5.10871 26.4208C5.46389 26.4208 5.80451 26.5595 6.05566 26.8062C6.3068 27.053 6.4479 27.3877 6.4479 27.7366V31.684C6.4479 32.0329 6.3068 32.3676 6.05566 32.6144C5.80451 32.8611 5.46389 32.9997 5.10871 32.9997Z" fill="#ADD0FF"/>
<path d="M16.0838 20.3289C15.7286 20.3289 15.388 20.1903 15.1369 19.9435C14.8857 19.6967 14.7446 19.3621 14.7446 19.0131V12.6579C14.7446 12.3089 14.8857 11.9742 15.1369 11.7275C15.388 11.4807 15.7286 11.3421 16.0838 11.3421C16.439 11.3421 16.7796 11.4807 17.0308 11.7275C17.2819 11.9742 17.423 12.3089 17.423 12.6579V19.0131C17.423 19.3621 17.2819 19.6967 17.0308 19.9435C16.7796 20.1903 16.439 20.3289 16.0838 20.3289Z" fill="#ADD0FF"/>
<path d="M16.0838 33C15.7286 33 15.388 32.8614 15.1369 32.6146C14.8857 32.3679 14.7446 32.0332 14.7446 31.6842V26.4211C14.7446 26.0721 14.8857 25.7374 15.1369 25.4907C15.388 25.2439 15.7286 25.1053 16.0838 25.1053C16.439 25.1053 16.7796 25.2439 17.0308 25.4907C17.2819 25.7374 17.423 26.0721 17.423 26.4211V31.6842C17.423 32.0332 17.2819 32.3679 17.0308 32.6146C16.7796 32.8614 16.439 33 16.0838 33Z" fill="#ADD0FF"/>
<path d="M16.0838 6.57891C15.7286 6.57891 15.388 6.44028 15.1369 6.19353C14.8857 5.94677 14.7446 5.6121 14.7446 5.26313V1.31578C14.7446 0.966815 14.8857 0.632141 15.1369 0.385384C15.388 0.138627 15.7286 0 16.0838 0C16.439 0 16.7796 0.138627 17.0308 0.385384C17.2819 0.632141 17.423 0.966815 17.423 1.31578V5.26313C17.423 5.6121 17.2819 5.94677 17.0308 6.19353C16.7796 6.44028 16.439 6.57891 16.0838 6.57891Z" fill="#ADD0FF"/>
<path d="M27.0582 17.7104C26.703 17.7104 26.3624 17.5718 26.1112 17.325C25.8601 17.0783 25.719 16.7436 25.719 16.3946V1.31578C25.719 0.966815 25.8601 0.632141 26.1112 0.385384C26.3624 0.138627 26.703 0 27.0582 0C27.4133 0 27.754 0.138627 28.0051 0.385384C28.2563 0.632141 28.3974 0.966815 28.3974 1.31578V16.3946C28.3974 16.5674 28.3627 16.7385 28.2954 16.8982C28.2281 17.0578 28.1295 17.2029 28.0051 17.325C27.8808 17.4472 27.7331 17.5441 27.5707 17.6103C27.4082 17.6764 27.234 17.7104 27.0582 17.7104Z" fill="#ADD0FF"/>
<path d="M27.0582 32.9996C26.703 32.9996 26.3624 32.861 26.1112 32.6142C25.8601 32.3674 25.719 32.0328 25.719 31.6838V23.7891C25.719 23.4401 25.8601 23.1055 26.1112 22.8587C26.3624 22.612 26.703 22.4733 27.0582 22.4733C27.4133 22.4733 27.754 22.612 28.0051 22.8587C28.2563 23.1055 28.3974 23.4401 28.3974 23.7891V31.6838C28.3974 32.0328 28.2563 32.3674 28.0051 32.6142C27.754 32.861 27.4133 32.9996 27.0582 32.9996Z" fill="#ADD0FF"/>
<path d="M5.10898 29.0525C4.09956 29.0538 3.11243 28.7609 2.27248 28.2108C1.43254 27.6608 0.777522 26.8783 0.390315 25.9624C0.00310805 25.0465 -0.0988896 24.0383 0.0972263 23.0654C0.293342 22.0925 0.778758 21.1987 1.49206 20.4969C2.20536 19.7951 3.11449 19.317 4.10441 19.1231C5.09434 18.9291 6.12059 19.028 7.0533 19.4072C7.98601 19.7865 8.78327 20.429 9.34421 21.2536C9.90516 22.0781 10.2046 23.0476 10.2046 24.0394C10.2046 25.3678 9.66793 26.6419 8.71251 27.5819C7.7571 28.5218 6.46103 29.0508 5.10898 29.0525ZM5.10898 21.6578C4.62929 21.6565 4.16 21.7951 3.7605 22.056C3.36101 22.3169 3.04929 22.6884 2.8648 23.1234C2.68032 23.5585 2.63136 24.0375 2.72413 24.5C2.8169 24.9624 3.04722 25.3873 3.38595 25.7211C3.72467 26.0548 4.15656 26.2823 4.62694 26.3747C5.09731 26.4671 5.58502 26.4203 6.02833 26.2403C6.47163 26.0602 6.85059 25.755 7.11723 25.3632C7.38387 24.9714 7.5262 24.5107 7.52621 24.0394C7.52621 23.4089 7.27175 22.8041 6.81863 22.3577C6.3655 21.9112 5.75068 21.6596 5.10898 21.6578Z" fill="#41378D"/>
<path d="M16.0837 13.9735C15.0746 13.9735 14.0881 13.6795 13.2491 13.1287C12.41 12.5778 11.756 11.7949 11.3698 10.8789C10.9837 9.96283 10.8826 8.95485 11.0795 7.9824C11.2764 7.00995 11.7623 6.11669 12.4759 5.41559C13.1894 4.7145 14.0986 4.23704 15.0883 4.04361C16.0781 3.85018 17.104 3.94945 18.0363 4.32889C18.9686 4.70832 19.7655 5.35086 20.3261 6.17527C20.8868 6.99967 21.186 7.96891 21.186 8.96041C21.186 10.29 20.6485 11.5651 19.6916 12.5052C18.7347 13.4454 17.4369 13.9735 16.0837 13.9735ZM16.0837 6.57885C15.6043 6.57885 15.1357 6.71852 14.7371 6.98021C14.3385 7.2419 14.0278 7.61385 13.8443 8.04903C13.6609 8.4842 13.6129 8.96306 13.7064 9.42503C13.7999 9.88701 14.0308 10.3114 14.3698 10.6444C14.7088 10.9775 15.1407 11.2043 15.6108 11.2962C16.081 11.3881 16.5684 11.3409 17.0113 11.1607C17.4542 10.9804 17.8328 10.6752 18.0991 10.2835C18.3655 9.89189 18.5077 9.43144 18.5077 8.96041C18.5077 8.32878 18.2523 7.72302 17.7977 7.27639C17.3431 6.82976 16.7266 6.57885 16.0837 6.57885Z" fill="#41378D"/>
<path d="M27.0584 25.105C26.0471 25.1076 25.0577 24.8153 24.2157 24.265C23.3736 23.7147 22.7167 22.9313 22.3281 22.0139C21.9396 21.0965 21.8369 20.0865 22.0331 19.1117C22.2292 18.1369 22.7154 17.2413 23.4301 16.5382C24.1447 15.8351 25.0556 15.3563 26.0475 15.1622C27.0393 14.9682 28.0675 15.0678 29.0017 15.4484C29.9359 15.8289 30.7341 16.4733 31.2953 17.2999C31.8565 18.1266 32.1553 19.0983 32.154 20.0919C32.154 21.4203 31.6174 22.6944 30.6619 23.6344C29.7065 24.5744 28.4105 25.1033 27.0584 25.105ZM27.0584 17.7103C26.516 17.7133 25.9904 17.8959 25.5667 18.2287C25.143 18.5615 24.8459 19.0249 24.7234 19.5441C24.601 20.0633 24.6604 20.608 24.892 21.0899C25.1236 21.5719 25.5139 21.963 25.9997 22.2C26.4856 22.437 27.0386 22.5061 27.5693 22.3961C28.1001 22.2861 28.5776 22.0034 28.9246 21.5938C29.2716 21.1841 29.4678 20.6714 29.4815 20.1386C29.4953 19.6058 29.3257 19.0841 29.0002 18.6577C28.7736 18.3625 28.4802 18.1233 28.1431 17.9588C27.8061 17.7944 27.4347 17.7093 27.0584 17.7103Z" fill="#41378D"/>
<circle cx="4.74487" cy="24" r="3" fill="#41378D"/>
<circle cx="26.7449" cy="20" r="3" fill="#41378D"/>
<circle cx="15.7449" cy="9" r="3" fill="#41378D"/>
</svg>
