<svg width="61" height="57" viewBox="0 0 61 57" fill="none" xmlns="http://www.w3.org/2000/svg">
<path d="M28.4219 2.7334C26.6542 4.77422 25.2156 7.07822 24.1582 9.5625L24.0127 9.90332C22.7401 12.8933 22.084 16.1099 22.084 19.3594V19.6885C22.084 21.3635 21.8912 23.0335 21.5078 24.6641C21.0638 26.5526 20.3685 28.373 19.4414 30.0771L18.1592 32.4326V43.126L30.2812 27.3574V0.585938L28.4219 2.7334Z" fill="#41378D" stroke="#41378D" stroke-width="0.437163"/>
<path d="M32.5781 2.7334C34.3458 4.77422 35.7844 7.07822 36.8418 9.5625L36.9873 9.90332C38.2599 12.8933 38.916 16.1099 38.916 19.3594V19.6885C38.916 21.3635 39.1088 23.0335 39.4922 24.6641C39.9362 26.5526 40.6315 28.373 41.5586 30.0771L42.8408 32.4326V43.126L30.7188 27.3574V0.585938L32.5781 2.7334Z" fill="#41378D" stroke="#41378D" stroke-width="0.437163"/>
<path d="M31.5049 37.2353C32.6618 39.0581 33.456 41.0872 33.8447 43.2108L33.8848 43.4276C34.2428 45.3838 34.2244 47.3904 33.8311 49.3398C33.4519 51.2185 32.7302 53.0116 31.7031 54.6298L30.7188 56.1806V35.997L31.5049 37.2353Z" fill="#41378D" stroke="#41378D" stroke-width="0.437163"/>
<path d="M29.4951 37.2353C28.3382 39.0581 27.544 41.0872 27.1553 43.2108L27.1152 43.4276C26.7572 45.3838 26.7756 47.3904 27.1689 49.3398C27.5481 51.2185 28.2698 53.0116 29.2969 54.6298L30.2812 56.1806V35.997L29.4951 37.2353Z" fill="#41378D" stroke="#41378D" stroke-width="0.437163"/>
<path d="M23.7242 4.74939C23.7242 4.74939 23.7242 4.74939 23.7242 4.74939C23.1693 5.08461 22.6134 5.41786 22.0565 5.74915C21.7678 5.92088 21.4789 6.09209 21.1897 6.26276C19.6795 7.1549 18.2667 8.19343 16.9735 9.35675C16.848 9.4694 16.7225 9.58193 16.5969 9.69434C15.4547 10.7183 14.427 11.8632 13.5338 13.1031C12.3969 14.6805 11.4781 16.4116 10.8066 18.2371C10.7727 18.3295 10.7393 18.422 10.7066 18.5149C10.5663 18.913 10.4251 19.3107 10.2831 19.7082L10.3077 19.6188C10.1597 20.3358 10.009 21.0523 9.85564 21.7682C9.45581 23.6309 9.27098 25.545 9.30887 27.4638C9.33713 28.9019 9.4903 30.3426 9.76865 31.7655C9.88535 32.3601 10.0003 32.9551 10.1134 33.5506L10.1048 33.5232C10.2886 34.0943 10.4707 34.6661 10.6512 35.2386C10.8481 35.8634 11.043 36.489 11.2359 37.1154C11.2359 37.1154 11.2359 37.1154 11.2359 37.1154C10.9622 36.5209 10.6905 35.9255 10.4208 35.3294C10.1737 34.7832 9.92834 34.2364 9.68466 33.6889L9.6761 33.6615C9.50011 33.082 9.32592 32.502 9.15353 31.9216C8.73014 30.4931 8.45085 29.014 8.32377 27.5173C8.15368 25.5202 8.25567 23.4918 8.62821 21.5127C8.7633 20.793 8.90104 20.0739 9.04145 19.3553L9.066 19.2659C9.20377 18.8669 9.34239 18.4682 9.48187 18.0698C9.51658 17.9707 9.55205 17.8719 9.58831 17.7734C10.3043 15.8258 11.3258 13.995 12.5986 12.375C13.5984 11.1014 14.7525 9.95772 16.0222 8.97934C16.1556 8.87666 16.2891 8.7741 16.4228 8.67166C17.8506 7.5751 19.4001 6.65389 21.0246 5.93178C21.331 5.79568 21.6378 5.6601 21.9447 5.52505C22.5369 5.26453 23.13 5.00598 23.7242 4.74939Z" fill="#41378D"/>
<path d="M37.2758 4.74939C37.2758 4.74939 37.2758 4.74939 37.2758 4.74939C37.8307 5.08461 38.3866 5.41786 38.9435 5.74915C39.2322 5.92088 39.5211 6.09209 39.8103 6.26276C41.3205 7.1549 42.7333 8.19343 44.0265 9.35675C44.152 9.4694 44.2775 9.58193 44.4031 9.69434C45.5453 10.7183 46.573 11.8633 47.4662 13.1031C48.6031 14.6805 49.5219 16.4116 50.1934 18.2371C50.2273 18.3295 50.2607 18.422 50.2934 18.5149C50.4337 18.913 50.5749 19.3107 50.7169 19.7082L50.6923 19.6188C50.8403 20.3358 50.991 21.0523 51.1444 21.7682C51.5442 23.6309 51.729 25.545 51.6911 27.4638C51.6629 28.9019 51.5097 30.3426 51.2313 31.7655C51.1146 32.3601 50.9997 32.9551 50.8866 33.5506L50.8952 33.5232C50.7114 34.0943 50.5293 34.6661 50.3488 35.2386C50.1519 35.8634 49.957 36.489 49.7641 37.1154C49.7641 37.1154 49.7641 37.1154 49.7641 37.1154C50.0378 36.5209 50.3095 35.9255 50.5792 35.3294C50.8263 34.7832 51.0717 34.2364 51.3153 33.6889L51.3239 33.6615C51.4999 33.082 51.6741 32.502 51.8465 31.9216C52.2699 30.4931 52.5492 29.014 52.6762 27.5173C52.8463 25.5202 52.7443 23.4918 52.3718 21.5127C52.2367 20.793 52.099 20.0739 51.9586 19.3553L51.934 19.2659C51.7962 18.8669 51.6576 18.4682 51.5181 18.0698C51.4834 17.9707 51.4479 17.8719 51.4117 17.7734C50.6957 15.8258 49.6742 13.995 48.4014 12.375C47.4016 11.1014 46.2475 9.95773 44.9778 8.97934C44.8444 8.87666 44.7109 8.7741 44.5772 8.67166C43.1494 7.5751 41.5999 6.65389 39.9754 5.93178C39.669 5.79568 39.3622 5.6601 39.0553 5.52505C38.4631 5.26453 37.87 5.00598 37.2758 4.74939Z" fill="#41378D"/>
</svg>
