<svg width="210" height="193" viewBox="0 0 210 193" fill="none" xmlns="http://www.w3.org/2000/svg">
<path d="M105 17.2604V9.64701e-05L97.1938 8.86597C91.1122 15.7731 86.1535 23.5928 82.4992 32.0391L81.9561 33.2945C77.5492 43.4801 75.2757 54.4605 75.2757 65.5586V66.6566C75.2757 72.2881 74.6144 77.9001 73.3055 83.3773C71.7951 89.6973 69.4353 95.7835 66.2906 101.47L61.7647 109.654V148.235L105 92.901V77.1637V71.5795V63.457V43.1508V17.2604Z" fill="#ADD0FF"/>
<path d="M105 17.2604V9.64701e-05L112.806 8.86597C118.888 15.7731 123.846 23.5928 127.501 32.0391L128.044 33.2945C132.451 43.4801 134.724 54.4605 134.724 65.5586V66.6566C134.724 72.2881 135.386 77.9001 136.695 83.3773C138.205 89.6973 140.565 95.7835 143.709 101.47L148.235 109.654V148.235L105 92.901V77.1637V71.5795V63.457V43.1508V17.2604Z" fill="#ADD0FF"/>
<path d="M105 135.179V119.366L109.132 125.771C113.14 131.984 115.898 138.918 117.25 146.187L117.387 146.92C118.639 153.652 118.576 160.564 117.2 167.272C115.879 173.707 113.375 179.841 109.814 185.361L105 192.822V177.008V157.114V135.179Z" fill="#ADD0FF"/>
<path d="M105 135.179V119.366L100.868 125.771C96.8596 131.984 94.1022 138.918 92.7499 146.187L92.6135 146.92C91.361 153.652 91.4245 160.564 92.8005 167.272C94.1205 173.707 96.625 179.841 100.186 185.361L105 192.822V177.008V157.114V135.179Z" fill="#ADD0FF"/>
<path d="M81.6725 16.0862C79.8301 17.3561 77.9809 18.6126 76.125 19.8557C75.163 20.5 74.1991 21.1408 73.2335 21.7779C68.2329 25.0897 63.6074 28.8073 59.3892 32.8611C58.9717 33.26 58.5536 33.6581 58.1348 34.0555C54.4237 37.6015 51.1058 41.4811 48.2159 45.6223C44.5371 50.8935 41.5518 56.5885 39.3179 62.5639C39.2059 62.8635 39.0959 63.1636 38.9876 63.4645C38.5031 64.8126 38.0127 66.1586 37.5164 67.5024L37.6863 66.8936C37.1637 69.3185 36.6227 71.7396 36.0633 74.157C34.6392 80.2681 33.8588 86.5565 33.7595 92.9221C33.685 97.6916 33.993 102.504 34.699 107.313C35.004 109.352 35.2965 111.393 35.5766 113.438L35.5174 113.252C36.0462 115.227 36.5633 117.207 37.0687 119.191C37.6199 121.356 38.1572 123.526 38.6805 125.702C37.5979 123.743 36.5293 121.78 35.4747 119.81C34.5079 118.005 33.5529 116.195 32.6096 114.381L32.5504 114.195C31.835 112.259 31.132 110.32 30.4415 108.378C28.7322 103.532 27.5517 98.458 26.9426 93.2893C26.1271 86.3913 26.3344 79.3253 27.5699 72.4225C28.0032 69.9793 28.4548 67.5399 28.9248 65.1043L29.0948 64.4954C29.5619 63.1411 30.0349 61.7889 30.5138 60.4388C30.6356 60.0955 30.7602 59.7534 30.8878 59.4122C33.4302 52.6044 37.1267 46.2306 41.7468 40.6687C45.3742 36.297 49.5674 32.4255 54.16 29.1896C54.6329 28.8586 55.1065 28.5283 55.5807 28.1988C60.7299 24.5991 66.3017 21.6798 72.092 19.5251C73.1768 19.1232 74.2635 18.725 75.3521 18.3303C77.4521 17.5689 79.5589 16.8209 81.6725 16.0862Z" fill="#ADD0FF"/>
<path d="M128.327 16.0862C130.17 17.3561 132.019 18.6126 133.875 19.8557C134.837 20.5 135.801 21.1407 136.767 21.7779C141.767 25.0897 146.393 28.8073 150.611 32.8611C151.028 33.26 151.446 33.6581 151.865 34.0555C155.576 37.6015 158.894 41.4811 161.784 45.6223C165.463 50.8935 168.448 56.5885 170.682 62.5639C170.794 62.8635 170.904 63.1636 171.012 63.4645C171.497 64.8126 171.987 66.1586 172.484 67.5024L172.314 66.8936C172.836 69.3185 173.377 71.7396 173.937 74.157C175.361 80.2681 176.141 86.5565 176.241 92.9221C176.315 97.6916 176.007 102.504 175.301 107.313C174.996 109.352 174.703 111.393 174.423 113.438L174.483 113.252C173.954 115.227 173.437 117.207 172.931 119.191C172.38 121.356 171.843 123.526 171.319 125.702C172.402 123.743 173.471 121.78 174.525 119.81C175.492 118.005 176.447 116.195 177.39 114.381L177.45 114.195C178.165 112.259 178.868 110.32 179.558 108.378C181.268 103.532 182.448 98.458 183.057 93.2893C183.873 86.3913 183.666 79.3253 182.43 72.4225C181.997 69.9793 181.545 67.5399 181.075 65.1043L180.905 64.4954C180.438 63.1411 179.965 61.7889 179.486 60.4388C179.364 60.0955 179.24 59.7534 179.112 59.4122C176.57 52.6044 172.873 46.2306 168.253 40.6687C164.626 36.297 160.433 32.4255 155.84 29.1896C155.367 28.8586 154.894 28.5283 154.419 28.1988C149.27 24.5991 143.698 21.6798 137.908 19.5251C136.823 19.1232 135.736 18.725 134.648 18.3303C132.548 17.5689 130.441 16.8209 128.327 16.0862Z" fill="#ADD0FF"/>
</svg>
