<svg width="70" height="84" viewBox="0 0 70 84" fill="none" xmlns="http://www.w3.org/2000/svg">
<path d="M34.7942 5.58904V0L32.2665 2.87086C30.2972 5.10745 28.6915 7.63955 27.5082 10.3745L27.3323 10.7811C25.9054 14.0793 25.1692 17.6348 25.1692 21.2285V21.584C25.1692 23.4075 24.9551 25.2248 24.5312 26.9983C24.0421 29.0448 23.278 31.0156 22.2597 32.8568L20.7942 35.5068V48L34.7942 30.0822V24.9863V23.1781V20.5479V13.9726V5.58904Z" fill="#41378D"/>
<path d="M34.7942 0L32.2668 2.87109C30.2976 5.10768 28.6914 7.64 27.5081 10.375L27.3323 10.7812C25.9054 14.0794 25.1692 17.6349 25.1692 21.2285V21.584C25.1692 23.4074 24.9553 25.2246 24.5315 26.998C24.0425 29.0444 23.2782 31.0153 22.26 32.8564L20.7942 35.5068V48L34.7942 30.082V0ZM33.7942 29.7373L21.7942 45.0957V35.7646L23.135 33.3408C24.197 31.4205 24.9941 29.3648 25.5042 27.2305C25.9462 25.3809 26.1692 23.4857 26.1692 21.584V21.2285C26.1692 17.7715 26.8775 14.3506 28.2502 11.1777L28.426 10.7715C29.5677 8.13267 31.1168 5.68919 33.0168 3.53125L33.7942 2.64844V29.7373Z" fill="#41378D"/>
<path d="M34.7942 5.58904V0L37.3219 2.87086C39.2912 5.10745 40.8969 7.63955 42.0802 10.3745L42.256 10.7811C43.683 14.0793 44.4192 17.6348 44.4192 21.2285V21.584C44.4192 23.4075 44.6333 25.2248 45.0572 26.9983C45.5463 29.0448 46.3104 31.0156 47.3287 32.8568L48.7942 35.5068V48L34.7942 30.0822V24.9863V23.1781V20.5479V13.9726V5.58904Z" fill="#41378D"/>
<path d="M34.7942 0L37.3215 2.87109C39.2908 5.10768 40.897 7.64 42.0803 10.375L42.2561 10.7812C43.683 14.0794 44.4192 17.6349 44.4192 21.2285V21.584C44.4192 23.4074 44.6331 25.2246 45.0569 26.998C45.5459 29.0444 46.3102 31.0153 47.3284 32.8564L48.7942 35.5068V48L34.7942 30.082V0ZM35.7942 29.7373L47.7942 45.0957V35.7646L46.4534 33.3408C45.3914 31.4205 44.5943 29.3648 44.0842 27.2305C43.6422 25.3809 43.4192 23.4857 43.4192 21.584V21.2285C43.4192 17.7715 42.7109 14.3506 41.3381 11.1777L41.1624 10.7715C40.0207 8.13267 38.4716 5.68919 36.5715 3.53125L35.7942 2.64844V29.7373Z" fill="#41378D"/>
<path d="M34.7942 43.7724V38.6519L36.1323 40.7259C37.4301 42.7376 38.323 44.9831 38.7609 47.3367L38.8051 47.5742C39.2106 49.7541 39.1901 51.992 38.7445 54.1641C38.3171 56.2479 37.5061 58.2341 36.3529 60.0216L34.7942 62.4376V57.317V50.8751V43.7724Z" fill="#41378D"/>
<path d="M36.1321 40.7261C37.4299 42.7376 38.3231 44.9829 38.761 47.3364L38.8049 47.5737C39.2105 49.7537 39.19 51.9924 38.7444 54.1646L38.6594 54.5532C38.2139 56.4951 37.434 58.3461 36.3528 60.022L34.7942 62.438V38.6519L36.1321 40.7261ZM35.7942 59.0239C36.7307 57.461 37.3982 55.7507 37.7649 53.9634C38.1845 51.9178 38.2034 49.8102 37.8215 47.7573L37.7776 47.52C37.4227 45.6124 36.7514 43.7797 35.7942 42.0972V59.0239Z" fill="#41378D"/>
<path d="M34.7942 43.7724V38.6519L33.4561 40.7259C32.1582 42.7376 31.2654 44.9831 30.8275 47.3367L30.7833 47.5742C30.3777 49.7541 30.3983 51.992 30.8439 54.1641C31.2713 56.2479 32.0823 58.2341 33.2355 60.0216L34.7942 62.4376V57.317V50.8751V43.7724Z" fill="#41378D"/>
<path d="M33.4563 40.7261C32.1585 42.7376 31.2653 44.9829 30.8274 47.3364L30.7834 47.5737C30.3779 49.7537 30.3984 51.9924 30.844 54.1646L30.929 54.5532C31.3745 56.4951 32.1544 58.3461 33.2356 60.022L34.7942 62.438V38.6519L33.4563 40.7261ZM33.7942 59.0239C32.8577 57.461 32.1901 55.7507 31.8235 53.9634C31.4039 51.9178 31.3849 49.8102 31.7668 47.7573L31.8108 47.52C32.1657 45.6124 32.8369 43.7797 33.7942 42.0972V59.0239Z" fill="#41378D"/>
<path d="M12.8049 38.5922C12.6435 37.9488 12.4784 37.3066 12.3092 36.6663L12.3288 36.7288C12.2402 36.0663 12.1473 35.4047 12.0503 34.7442C11.8266 33.1874 11.7308 31.6301 11.7582 30.0878C11.7947 28.0291 12.0502 25.9956 12.5122 24.0206C12.6847 23.2777 12.8509 22.5334 13.0123 21.7882C13.1626 21.381 13.3124 20.9735 13.4593 20.565C13.4942 20.4678 13.5297 20.3707 13.5659 20.274C14.2877 18.3432 15.2511 16.5024 16.4377 14.7971C17.3699 13.4573 18.4397 12.2002 19.6371 11.0506C19.7723 10.9217 19.9078 10.7924 20.0426 10.663C21.404 9.34827 22.8977 8.14077 24.513 7.06292C24.8251 6.85548 25.137 6.64616 25.4479 6.43632C26.0476 6.03156 26.6456 5.6229 27.2408 5.20921C26.5551 5.44454 25.8711 5.68369 25.1899 5.92794C24.837 6.05448 24.4847 6.18235 24.1331 6.31128C22.2545 7.00347 20.4454 7.94498 18.7736 9.10833C18.6198 9.21469 18.4659 9.32155 18.3125 9.42843C16.8212 10.4747 15.4592 11.7285 14.2811 13.1452C12.7806 14.9476 11.5805 17.0152 10.7558 19.2236C10.7145 19.3341 10.6741 19.445 10.6347 19.5563C10.4797 19.9933 10.3264 20.431 10.1753 20.8694L10.1184 21.0727C9.9665 21.8614 9.82026 22.6516 9.68057 23.4429C9.28142 25.6818 9.21751 27.9738 9.48589 30.2099C9.68639 31.8853 10.0729 33.5294 10.6312 35.0987C10.8566 35.7271 11.0866 36.3545 11.3203 36.9809L11.3399 37.0434C11.6472 37.6298 11.9585 38.2147 12.2736 38.7981C12.6175 39.4348 12.9663 40.0705 13.3195 40.7036C13.1527 39.9981 12.981 39.2941 12.8049 38.5922Z" fill="#41378D"/>
<path d="M56.7834 38.5922C56.9449 37.9488 57.1099 37.3066 57.2792 36.6663L57.2596 36.7288C57.3482 36.0663 57.4411 35.4047 57.538 34.7442C57.7618 33.1874 57.8575 31.6301 57.8302 30.0878C57.7937 28.0291 57.5382 25.9956 57.0762 24.0206C56.9036 23.2777 56.7375 22.5334 56.576 21.7882C56.4257 21.381 56.276 20.9735 56.1291 20.565C56.0941 20.4678 56.0587 20.3707 56.0225 20.274C55.3007 18.3432 54.3373 16.5024 53.1507 14.7971C52.2185 13.4573 51.1487 12.2002 49.9513 11.0506C49.816 10.9217 49.6806 10.7924 49.5458 10.663C48.1844 9.34827 46.6907 8.14077 45.0754 7.06292C44.7633 6.85548 44.4514 6.64616 44.1405 6.43632C43.5407 6.03156 42.9428 5.6229 42.3476 5.20921C43.0333 5.44454 43.7173 5.68369 44.3985 5.92794C44.7514 6.05448 45.1036 6.18235 45.4553 6.31128C47.3339 7.00347 49.143 7.94498 50.8147 9.10833C50.9686 9.21469 51.1225 9.32155 51.2759 9.42843C52.7672 10.4747 54.1292 11.7285 55.3073 13.1452C56.8078 14.9476 58.0079 17.0152 58.8326 19.2236C58.8739 19.3341 58.9143 19.445 58.9537 19.5563C59.1087 19.9933 59.262 20.431 59.4131 20.8694L59.4699 21.0727C59.6219 21.8614 59.7681 22.6516 59.9078 23.4429C60.307 25.6818 60.3709 27.9738 60.1025 30.2099C59.902 31.8853 59.5154 33.5294 58.9572 35.0987C58.7318 35.7271 58.5018 36.3545 58.2681 36.9809L58.2484 37.0434C57.9412 37.6298 57.6298 38.2147 57.3147 38.7981C56.9708 39.4348 56.6221 40.0705 56.2689 40.7036C56.4357 39.9981 56.6073 39.2941 56.7834 38.5922Z" fill="#41378D"/>
<path d="M55.7887 82.086L53.8748 84H46.2848V72.582L48.1987 70.712H46.0208V68.798H53.8748L55.7887 70.712V82.086ZM53.6108 82.086V70.712H48.4627V83.736L50.0688 82.086H53.6108Z" fill="#41378D"/>
<path d="M41.9314 84H39.7534V68.798H41.9314V84Z" fill="#41378D"/>
<path d="M35.7162 82.086L33.8022 84H28.1042L26.2122 82.086V70.712L28.1042 68.798H33.8022L35.7162 70.712V82.086ZM33.5382 82.086V70.712H28.3902V82.086H33.5382Z" fill="#41378D"/>
<path d="M22.7943 79.116L19.2083 84H16.7663L13.2903 79.116V68.798H15.5123V78.72L17.7563 82.152H18.3283L20.6163 78.72V68.798H22.7943V79.116Z" fill="#41378D"/>
</svg>
