<svg width="213" height="196" viewBox="0 0 213 196" fill="none" xmlns="http://www.w3.org/2000/svg">
<path d="M106.135 17.4468V0L98.2442 8.96169C92.0968 15.9435 87.0846 23.8477 83.3908 32.3853L82.8418 33.6543C78.3873 43.95 76.0893 55.049 76.0893 66.267V67.3769C76.0893 73.0692 75.4208 78.7419 74.0977 84.2783C72.571 90.6666 70.1857 96.8185 67.007 102.566L62.4322 110.839L62.4322 149.837L106.135 93.9049L106.135 77.9975V72.353V64.1427V43.617V17.4468Z" fill="#ADD0FF"/>
<path d="M106.135 17.4468V0L114.025 8.96169C120.173 15.9435 125.185 23.8477 128.879 32.3853L129.428 33.6543C133.882 43.95 136.18 55.049 136.18 66.267V67.3769C136.18 73.0692 136.849 78.7419 138.172 84.2783C139.699 90.6666 142.084 96.8185 145.262 102.566L149.837 110.839V149.837L106.135 93.9049L106.135 77.9975V72.353V64.1427V43.617V17.4468Z" fill="#ADD0FF"/>
<path d="M106.135 136.64V120.656L110.312 127.13C114.363 133.41 117.15 140.42 118.517 147.767L118.655 148.508C119.921 155.313 119.857 162.299 118.466 169.079C117.132 175.584 114.6 181.784 111 187.364L106.135 194.906V178.921V158.812V136.64Z" fill="#ADD0FF"/>
<path d="M106.135 136.64V120.656L101.958 127.13C97.9064 133.41 95.1192 140.42 93.7523 147.767L93.6144 148.508C92.3483 155.313 92.4125 162.299 93.8034 169.079C95.1377 175.584 97.6692 181.784 101.269 187.364L106.135 194.906V178.921V158.812V136.64Z" fill="#ADD0FF"/>
<path d="M82.5552 16.26C82.5552 16.26 82.5552 16.26 82.5552 16.26C80.6914 17.5407 78.8208 18.808 76.9435 20.062C75.9704 20.7119 74.9955 21.3583 74.0187 22.001C68.9599 25.3424 64.2793 29.0959 60.0105 33.191C59.5882 33.5938 59.1652 33.9959 58.7416 34.3972C54.9857 37.9798 51.6272 41.9014 48.702 46.0886C44.9784 51.4183 41.9569 57.1785 39.6973 63.223C39.584 63.526 39.4727 63.8296 39.3632 64.134C38.8735 65.4967 38.3778 66.8572 37.8763 68.2157L38.0463 67.6068C37.5183 70.058 36.9719 72.5054 36.4071 74.9491C34.9687 81.1305 34.183 87.491 34.0875 93.9283C34.0159 98.7515 34.332 103.618 35.051 108.479C35.3613 110.539 35.6593 112.602 35.9447 114.668L35.8855 114.482C36.4223 116.477 36.9474 118.478 37.4607 120.483C38.0206 122.67 38.5666 124.862 39.0986 127.06C39.0986 127.06 39.0986 127.06 39.0986 127.06C38.0073 125.079 36.93 123.093 35.8667 121.102C34.892 119.276 33.929 117.446 32.9777 115.611L32.9185 115.425C32.1977 113.467 31.4894 111.507 30.7935 109.544C29.0711 104.645 27.8826 99.5179 27.2706 94.2954C26.4513 87.3258 26.6639 80.1877 27.9138 73.2145C28.3524 70.7451 28.8094 68.2794 29.2848 65.8175L29.4547 65.2086C29.927 63.8398 30.4052 62.473 30.8893 61.1083C31.0124 60.7615 31.1383 60.4159 31.2672 60.0713C33.8354 53.1944 37.568 46.7554 42.2329 41.1349C45.8955 36.7172 50.1293 32.8038 54.7668 29.5313C55.2445 29.1963 55.7229 28.8621 56.2019 28.5287C61.4018 24.8877 67.0287 21.9325 72.8772 19.7482C73.9732 19.3407 75.071 18.9369 76.1706 18.5366C78.292 17.7644 80.4202 17.0055 82.5552 16.26Z" fill="#ADD0FF"/>
<path d="M129.714 16.26C129.714 16.26 129.714 16.26 129.714 16.26C131.578 17.5407 133.449 18.808 135.326 20.0619C136.299 20.7119 137.274 21.3583 138.251 22.001C143.31 25.3424 147.99 29.0959 152.259 33.191C152.681 33.5938 153.104 33.9959 153.528 34.3972C157.284 37.9798 160.642 41.9014 163.567 46.0886C167.291 51.4182 170.313 57.1784 172.572 63.223C172.685 63.526 172.797 63.8296 172.906 64.134C173.396 65.4967 173.892 66.8572 174.393 68.2157L174.223 67.6068C174.751 70.058 175.298 72.5054 175.862 74.9491C177.301 81.1305 178.087 87.491 178.182 93.9283C178.254 98.7515 177.937 103.618 177.219 108.479C176.908 110.539 176.61 112.602 176.325 114.668L176.384 114.482C175.847 116.477 175.322 118.478 174.809 120.483C174.249 122.67 173.703 124.862 173.171 127.06C173.171 127.06 173.171 127.06 173.171 127.06C174.262 125.079 175.339 123.093 176.403 121.102C177.377 119.276 178.34 117.446 179.292 115.611L179.351 115.425C180.072 113.467 180.78 111.507 181.476 109.544C183.198 104.645 184.387 99.5179 184.999 94.2954C185.818 87.3258 185.606 80.1877 184.356 73.2145C183.917 70.7451 183.46 68.2794 182.985 65.8175L182.815 65.2086C182.342 63.8398 181.864 62.473 181.38 61.1083C181.257 60.7615 181.131 60.4159 181.002 60.0713C178.434 53.1944 174.702 46.7554 170.037 41.1349C166.374 36.7172 162.14 32.8038 157.503 29.5313C157.025 29.1963 156.547 28.8621 156.068 28.5287C150.868 24.8877 145.241 21.9325 139.392 19.7482C138.296 19.3407 137.198 18.9369 136.099 18.5366C133.977 17.7644 131.849 17.0055 129.714 16.26Z" fill="#ADD0FF"/>
<path d="M104.541 1.91234L106.135 0L107.728 1.91234L107.728 93.7046H104.541L104.541 1.91234Z" fill="#ADD0FF"/>
<path d="M104.541 123.829L106.135 120.796L107.728 123.829V192.9L106.135 195.058L104.541 192.9V123.829Z" fill="#ADD0FF"/>
</svg>
