<svg width="30" height="30" viewBox="0 0 30 30" fill="none" xmlns="http://www.w3.org/2000/svg">
<path d="M15 0C6.7347 0 0 6.7347 0 15C0 17.2959 0.45918 19.5918 1.53062 21.5817V27.2449C1.53062 27.8571 1.98979 28.4694 2.7551 28.4694H8.41838C10.4082 29.5409 12.7041 30 15 30C23.2653 30 30 23.2653 30 15C30 6.7347 23.2653 0 15 0ZM10.4082 16.5306C9.64285 16.5306 8.87755 15.7653 8.87755 15C8.87755 14.2347 9.64285 13.4694 10.4082 13.4694C11.1735 13.4694 11.9388 14.2347 11.9388 15C11.9388 15.7653 11.1735 16.5306 10.4082 16.5306ZM15 16.5306C14.2347 16.5306 13.4694 15.7653 13.4694 15C13.4694 14.2347 14.2347 13.4694 15 13.4694C15.7653 13.4694 16.5306 14.2347 16.5306 15C16.5306 15.7653 15.7653 16.5306 15 16.5306ZM19.5918 16.5306C18.8265 16.5306 18.0612 15.7653 18.0612 15C18.0612 14.2347 18.8265 13.4694 19.5918 13.4694C20.3571 13.4694 21.1224 14.2347 21.1224 15C21.1224 15.7653 20.3571 16.5306 19.5918 16.5306Z" fill="#ADD0FF"/>
</svg>
