<svg width="32" height="27" viewBox="0 0 32 27" fill="none" xmlns="http://www.w3.org/2000/svg">
<path d="M26.6667 2.3625V22.275C26.6667 22.6478 26.9651 22.95 27.3333 22.95C27.6606 22.95 27.9328 22.7112 27.9893 22.3963L28 22.275V4.05H29.6667C30.8909 4.05 31.8949 5.0046 31.9923 6.21874L32 6.4125V22.6125C32 24.9521 30.1914 26.864 27.9126 26.9931L27.6667 27H4.33333C2.02262 27 0.134339 25.1688 0.00685978 22.8615L0 22.6125V2.3625C0 1.12297 0.942814 0.10639 2.14196 0.00783162L2.33333 0H24.3333C25.5576 0 26.5616 0.954599 26.6589 2.16874L26.6667 2.3625ZM10.3287 12.1547H7C5.77577 12.1547 4.77174 13.1093 4.6744 14.3234L4.66667 14.5172V17.8875C4.66667 19.127 5.60948 20.1436 6.80863 20.2422L7 20.25H10.3287C11.5529 20.25 12.557 19.2954 12.6543 18.0813L12.662 17.8875V14.5172C12.662 13.2777 11.7192 12.2611 10.5201 12.1625L10.3287 12.1547ZM21 18.225H16.3333L16.1976 18.2342C15.7095 18.3013 15.3333 18.7249 15.3333 19.2375C15.3333 19.7501 15.7095 20.1737 16.1976 20.2408L16.3333 20.25H21L21.1357 20.2408C21.6238 20.1737 22 19.7501 22 19.2375C22 18.7249 21.6238 18.3013 21.1357 18.2342L21 18.225ZM7 14.1797H10.3287C10.4865 14.1797 10.6187 14.2907 10.6532 14.4398L10.662 14.5172V17.8875C10.662 18.0473 10.5524 18.1811 10.4051 18.2161L10.3287 18.225H7C6.8422 18.225 6.71002 18.114 6.67547 17.9649L6.66667 17.8875V14.5172C6.66667 14.3574 6.77631 14.2236 6.92357 14.1886L7 14.1797ZM21 12.1547H16.3333L16.1976 12.1639C15.7095 12.231 15.3333 12.6546 15.3333 13.1672C15.3333 13.6798 15.7095 14.1034 16.1976 14.1704L16.3333 14.1797H21L21.1357 14.1704C21.6238 14.1034 22 13.6798 22 13.1672C22 12.6546 21.6238 12.231 21.1357 12.1639L21 12.1547ZM21 6.07049H5.66667L5.53097 6.07973C5.04287 6.14678 4.66667 6.5704 4.66667 7.08299C4.66667 7.59558 5.04287 8.0192 5.53097 8.08624L5.66667 8.09549H21L21.1357 8.08624C21.6238 8.0192 22 7.59558 22 7.08299C22 6.5704 21.6238 6.14678 21.1357 6.07973L21 6.07049Z" fill="#ADD0FF"/>
</svg>
