<svg width="27" height="32" viewBox="0 0 27 32" fill="none" xmlns="http://www.w3.org/2000/svg">
<path d="M11.9618 0.0820513C10.2556 0.344551 8.7306 1.15705 7.53685 2.4258C6.22435 3.81955 5.5431 5.43205 5.44935 7.3633C5.3181 10.0633 6.6431 12.6446 8.9306 14.1383C10.0556 14.8758 11.1368 15.2508 12.4493 15.3571C14.8806 15.5446 16.9556 14.7821 18.6306 13.0758C19.9618 11.7258 20.6368 10.2508 20.7993 8.36955C21.0243 5.85705 20.0743 3.51955 18.1806 1.88205C16.9556 0.832051 15.8306 0.307051 14.2743 0.0820513C13.5243 -0.0241995 12.6493 -0.0304489 11.9618 0.0820513Z" fill="#41378D"/>
<path d="M6.28656 15.4945C3.46156 15.7945 1.49906 17.8195 0.586562 21.3945C-0.0196883 23.7758 -0.175938 26.6383 0.211562 28.207C0.530312 29.4633 1.57406 30.7383 2.78031 31.3508C3.32406 31.6258 4.10531 31.8508 4.76156 31.9258C5.14906 31.9758 8.09906 31.9883 13.7428 31.9758L22.1491 31.957L22.6803 31.807C24.6553 31.2695 26.0053 29.9445 26.4991 28.082C26.7553 27.1133 26.7241 24.8008 26.4241 22.9758C25.7678 18.9133 24.1053 16.4758 21.4741 15.7133C20.8741 15.5383 19.7991 15.407 19.4803 15.4695C19.1741 15.5258 18.7491 15.7508 17.7866 16.3695C16.7616 17.032 16.6178 17.107 15.8491 17.3945C14.9616 17.7258 14.2303 17.8695 13.3741 17.8695C12.4991 17.8695 11.8241 17.7445 10.9366 17.432C10.0991 17.132 10.0616 17.1133 8.74906 16.282C8.06156 15.8445 7.54906 15.5633 7.34906 15.507C6.99906 15.4195 6.99906 15.4195 6.28656 15.4945Z" fill="#41378D"/>
</svg>
