<svg width="16" height="23" viewBox="0 0 16 23" fill="none" xmlns="http://www.w3.org/2000/svg">
<path d="M0.529623 0.0373325C0.32111 0.107227 0.175151 0.242907 0.0792349 0.448481C0.00834052 0.596495 0 0.732174 0 1.76416C0 2.78792 0.00834052 2.94827 0.0834052 3.2114C0.129278 3.37175 0.204343 3.57322 0.254386 3.66367C0.458728 4.01315 0.0458728 3.70067 7.80673 9.42387C9.47483 10.6532 10.017 11.0767 10.067 11.1795C10.1504 11.348 10.1504 11.6359 10.0712 11.788C9.99611 11.936 9.97943 11.9483 8.65329 12.9227C8.03609 13.3791 7.40638 13.8437 7.25625 13.9547C7.10612 14.0657 5.70074 15.106 4.12856 16.2613C0.596347 18.8639 0.725625 18.7652 0.512942 18.979C0.291918 19.2051 0.187662 19.3983 0.0834052 19.7643C0.00834052 20.0274 0 20.1836 0 21.2115C0 22.2435 0.00834052 22.3792 0.0792349 22.5272C0.120938 22.6176 0.200172 22.7328 0.254386 22.7821C0.375323 22.889 0.629709 23 0.754817 23C0.859073 23 1.17601 22.852 1.28444 22.7533C1.32197 22.7163 1.58053 22.5231 1.85577 22.3216C2.87331 21.5774 13.716 13.5847 14.0746 13.3133C14.2122 13.2106 14.6251 12.9063 14.9921 12.6349C15.822 12.0223 15.8261 12.0141 15.9346 11.7386C16.018 11.5207 16.018 11.5002 15.9554 11.2987C15.9179 11.1795 15.847 11.0356 15.7969 10.9739C15.7469 10.9081 14.5125 9.97892 13.0571 8.90582C11.5975 7.82861 9.51236 6.29502 8.42392 5.48917C7.33549 4.68743 5.27955 3.17029 3.85749 2.12186C2.43543 1.06932 1.2052 0.1689 1.12597 0.119562C0.934138 -0.00378227 0.725625 -0.0325642 0.529623 0.0373325Z" fill="#141D26"/>
<path d="M0.429537 8.34664C0.254386 8.42887 0.191832 8.49055 0.108427 8.66323L0 8.87292V11.4837C0 13.9301 0.00834052 14.111 0.0792349 14.2631C0.258556 14.6578 0.746476 14.8305 1.09261 14.629C1.12597 14.6084 1.92249 14.0246 2.8608 13.3298C4.00762 12.4787 4.5998 12.0141 4.67069 11.9113C4.81248 11.6975 4.81248 11.2946 4.67486 11.0643C4.60397 10.9533 4.09519 10.5545 2.83995 9.62943C1.88496 8.92225 1.03839 8.32198 0.95916 8.2932C0.746476 8.21919 0.667242 8.22741 0.429537 8.34664Z" fill="#141D26"/>
</svg>
